<?xml version="1.0" encoding="UTF-8"?>
<svg xmlns="http://www.w3.org/2000/svg" viewBox="0 0 132.74 129.99">
  <defs>
    <style>
      .cls-1 {
        fill: #006838;
      }

      .cls-2 {
        fill: #8dc63f;
      }

      .cls-2, .cls-3, .cls-4 {
        stroke: #006838;
        stroke-miterlimit: 10;
      }

      .cls-3 {
        fill: #39b54a;
      }

      .cls-4 {
        fill: none;
      }
    </style>
  </defs>
  <g id="handle">
    <path class="cls-3" d="m67.06.5C45.44.5,27.91,12.61,27.91,27.55c0,7.09,3.95,13.53,10.4,18.36-2.37-16.95,7.21-35.87,28.75-36.79,16.16,0,29.26,14.2,29.26,31.72,0,1.69-.12,3.34-.36,4.96,6.36-4.81,10.24-11.21,10.24-18.24C106.21,12.61,88.68.5,67.06.5Z"/>
  </g>
  <g id="background">
    <path id="body" class="cls-3" d="m132.24,80.77c0,22.15,0,34.22-6.2,40.8-7.42,7.89-22.54,7.46-51.51,7.89-3.32.05-5.69.03-8.16,0-34.48-.34-52.23.01-59.67-7.89C.5,114.99.5,102.92.5,80.77c0-26.89,29.49-48.69,65.87-48.69s65.87,21.8,65.87,48.69Z"/>
    <ellipse id="face" class="cls-2" cx="66.37" cy="80.77" rx="49.13" ry="39.38"/>
  </g>
  <g id="mouthLayer">
    <path id="happyMouth" class="cls-4" d="m75.32,88.78c2.06,4.21-4.66,8.45-10.41,8.45s-11.5-4.23-10.41-8.45h20.82Z"/>
    <line id="closedMouth" class="cls-4" x1="54.36" y1="93.01" x2="75.7" y2="93.01"/>
    <path id="sadMouth" class="cls-4" d="m75.32,97.24c2.06-4.21-4.66-8.45-10.41-8.45s-11.5,4.23-10.41,8.45h20.82Z"/>
    <ellipse id="eatMouth" class="cls-4" cx="65.03" cy="93.01" rx="5.06" ry="2.55"/>
  </g>
  <g id="eyeLayer">
    <g id="openEyes">
      <g id="open_eye">
        <path class="cls-1" d="m47.42,72.9l4.29-4.29c-.72-3.75-2.37-6.38-4.29-6.38-2.59,0-4.68,4.77-4.68,10.67s2.1,10.67,4.68,10.67c1.92,0,3.56-2.62,4.29-6.38l-4.29-4.29Z"/>
      </g>
      <g id="open_eye-2" data-name="open_eye">
        <path class="cls-1" d="m83.23,72.9l4.29-4.29c-.72-3.75-2.37-6.38-4.29-6.38-2.59,0-4.68,4.77-4.68,10.67s2.1,10.67,4.68,10.67c1.92,0,3.56-2.62,4.29-6.38l-4.29-4.29Z"/>
      </g>
    </g>
    <g id="closedEyes">
      <line class="cls-4" x1="42.74" y1="73.2" x2="52.1" y2="73.2"/>
      <line class="cls-4" x1="78.6" y1="73.2" x2="87.96" y2="73.2"/>
    </g>
    <g id="sadEyes">
      <path class="cls-1" d="m49.52,78.53l2.56-1.72c0-.13.01-.26.01-.39,0-2.09-.59-3.97-1.53-5.28l-7.71,3.71c-.07.51-.12,1.03-.12,1.57,0,3.95,2.1,7.15,4.68,7.15,1.77,0,3.31-1.5,4.1-3.7l-2-1.34Z"/>
      <path class="cls-1" d="m79.86,71.14c-.94,1.31-1.53,3.19-1.53,5.28,0,.13,0,.26.01.39l2.56,1.72-2,1.34c.8,2.21,2.33,3.7,4.1,3.7,2.59,0,4.68-3.2,4.68-7.15,0-.54-.04-1.07-.12-1.57l-7.71-3.71Z"/>
    </g>
  </g>
</svg>