<?xml version="1.0" encoding="UTF-8"?>
<svg xmlns="http://www.w3.org/2000/svg" viewBox="0 0 132.74 129.01">
  <defs>
    <style>
      .cls-1 {
        fill: #006838;
      }

      .cls-2 {
        fill: #8dc63f;
      }

      .cls-2, .cls-3, .cls-4 {
        stroke: #006838;
        stroke-miterlimit: 10;
      }

      .cls-3 {
        fill: #39b54a;
      }

      .cls-4 {
        fill: none;
      }
    </style>
  </defs>
  <g id="handle">
    <path class="cls-3" d="m68.4,8.86c-21.62,0-39.15,12.11-39.15,27.05,0,7.09,3.95,13.53,10.4,18.36-2.37-16.95,7.21-35.87,28.75-36.79,16.16,0,29.26,14.2,29.26,31.72,0,1.69-.12,3.34-.36,4.96,6.36-4.81,10.24-11.21,10.24-18.24,0-14.94-17.53-27.05-39.15-27.05Z"/>
  </g>
  <g id="background">
    <ellipse class="cls-3" cx="66.37" cy="49.19" rx="65.87" ry="48.69"/>
    <ellipse class="cls-2" cx="67.71" cy="89.13" rx="49.13" ry="39.38"/>
  </g>
  <g id="mouthLayer">
    <path id="happyMouth" class="cls-4" d="m76.66,97.14c2.06,4.21-4.66,8.45-10.41,8.45s-11.5-4.23-10.41-8.45h20.82Z"/>
    <line id="closedMouth" class="cls-4" x1="55.7" y1="101.37" x2="77.04" y2="101.37"/>
    <path id="sadMouth" class="cls-4" d="m76.66,105.59c2.06-4.21-4.66-8.45-10.41-8.45s-11.5,4.23-10.41,8.45h20.82Z"/>
  </g>
  <g id="eyeLayer">
    <g id="openEyes">
      <g id="open_eye">
        <path class="cls-1" d="m48.76,81.26l4.29-4.29c-.72-3.75-2.37-6.38-4.29-6.38-2.59,0-4.68,4.77-4.68,10.67s2.1,10.67,4.68,10.67c1.92,0,3.56-2.62,4.29-6.38l-4.29-4.29Z"/>
      </g>
      <g id="open_eye-2" data-name="open_eye">
        <path class="cls-1" d="m84.57,81.26l4.29-4.29c-.72-3.75-2.37-6.38-4.29-6.38-2.59,0-4.68,4.77-4.68,10.67s2.1,10.67,4.68,10.67c1.92,0,3.56-2.62,4.29-6.38l-4.29-4.29Z"/>
      </g>
    </g>
    <g id="closedEyes">
      <line class="cls-4" x1="44.07" y1="81.56" x2="53.44" y2="81.56"/>
      <line class="cls-4" x1="79.94" y1="81.56" x2="89.3" y2="81.56"/>
    </g>
    <g id="sadEyes">
      <path class="cls-1" d="m50.86,86.88l2.56-1.72c0-.13.01-.26.01-.39,0-2.09-.59-3.97-1.53-5.28l-7.71,3.71c-.07.51-.12,1.03-.12,1.57,0,3.95,2.1,7.15,4.68,7.15,1.77,0,3.31-1.5,4.1-3.7l-2-1.34Z"/>
      <path class="cls-1" d="m81.19,79.5c-.94,1.31-1.53,3.19-1.53,5.28,0,.13,0,.26.01.39l2.56,1.72-2,1.34c.8,2.21,2.33,3.7,4.1,3.7,2.59,0,4.68-3.2,4.68-7.15,0-.54-.04-1.07-.12-1.57l-7.71-3.71Z"/>
    </g>
  </g>
</svg>